<svg xmlns="http://www.w3.org/2000/svg" version="1.1" xmlns:xlink="http://www.w3.org/1999/xlink" xmlns:svgjs="http://svgjs.dev/svgjs" viewBox="0 0 8.07037191233199 6.164358097878712"><g transform="matrix(1,0,0,1,0.58670573155662,4.491652366322093)"><rect width="8.07037191233199" height="8.07037191233199" x="-0.58670573155662" y="-5.444659273548732" fill="#ffffff"></rect><g><path d=" M 0.0555 0.8025 Q 0.0585 0.867 0.08925 0.9195000000000001 Q 0.12 0.9720000000000001 0.17325000000000002 1.00875 Q 0.2265 1.0455 0.2985 1.06575 Q 0.3705 1.086 0.456 1.086 Q 0.543 1.086 0.61275 1.0650000000000002 Q 0.6825 1.044 0.732 1.0050000000000001 Q 0.7815 0.9660000000000001 0.8085 0.9105000000000001 Q 0.8355 0.8550000000000001 0.8355 0.7875000000000001 Q 0.8355 0.6945000000000001 0.789 0.6352500000000001 Q 0.7425 0.5760000000000001 0.67275 0.53625 Q 0.603 0.49650000000000005 0.52125 0.46950000000000003 Q 0.4395 0.4425 0.36975 0.4125000000000001 Q 0.3 0.38250000000000006 0.2535 0.3435 Q 0.20700000000000002 0.3045 0.20700000000000002 0.24 Q 0.20700000000000002 0.20400000000000007 0.22275 0.1725 Q 0.23850000000000002 0.14100000000000001 0.26925 0.11775000000000002 Q 0.3 0.09450000000000003 0.34500000000000003 0.08025000000000004 Q 0.39 0.06600000000000006 0.4485 0.06600000000000006 Q 0.546 0.06600000000000006 0.61425 0.10725000000000007 Q 0.6825 0.14850000000000008 0.6945 0.237 L 0.7965 0.237 Q 0.7875 0.1815 0.756 0.1372500000000001 Q 0.7245 0.09300000000000008 0.6765 0.06225000000000014 Q 0.6285000000000001 0.031500000000000083 0.56775 0.01574999999999993 Q 0.507 0 0.441 0 Q 0.372 0 0.30975 0.018000000000000016 Q 0.2475 0.03600000000000003 0.20025 0.07050000000000001 Q 0.153 0.1050000000000001 0.12525 0.15750000000000008 Q 0.0975 0.21000000000000008 0.0975 0.2775000000000001 Q 0.0975 0.366 0.14250000000000002 0.42000000000000004 Q 0.1875 0.4740000000000001 0.25575000000000003 0.51 Q 0.324 0.546 0.4035 0.5715000000000001 Q 0.483 0.597 0.55125 0.6292500000000001 Q 0.6195 0.6615 0.6645 0.7080000000000001 Q 0.7095 0.7545000000000001 0.7095 0.8325 Q 0.7095 0.93 0.63825 0.9750000000000001 Q 0.5670000000000001 1.02 0.4485 1.02 Q 0.354 1.02 0.297 0.9952500000000001 Q 0.24 0.9705 0.21 0.936 Q 0.18 0.9015000000000001 0.1695 0.86475 Q 0.159 0.8280000000000001 0.1575 0.8025 L 0.0555 0.8025 M 1.7160000000000002 0.7590000000000001 L 1.8599999999999999 1.068 L 2.0055 1.068 L 1.5165000000000002 0.018000000000000016 L 1.4415 0.018000000000000016 L 0.9975 1.068 L 1.0665 1.068 L 1.1985000000000001 0.7590000000000001 L 1.7160000000000002 0.7590000000000001 M 1.6844999999999999 0.6915 L 1.227 0.6915 L 1.443 0.18600000000000005 L 1.449 0.18600000000000005 L 1.6844999999999999 0.6915 M 2.3474919433593753 0.018000000000000016 L 2.2454919433593754 0.018000000000000016 L 2.2454919433593754 1.068 L 2.3114919433593752 1.068 L 2.3114919433593752 0.21150000000000002 L 2.317491943359375 0.21150000000000002 L 2.7809919433593753 1.086 L 2.8079919433593754 1.086 L 3.281991943359375 0.21750000000000003 L 3.2879919433593754 0.21750000000000003 L 3.2879919433593754 1.068 L 3.4244919433593752 1.068 L 3.4244919433593752 0.018000000000000016 L 3.3209919433593753 0.018000000000000016 L 2.834991943359375 0.9195000000000001 L 2.8289919433593753 0.9195000000000001 L 2.3474919433593753 0.018000000000000016 M 3.7994934082031255 1.068 L 4.175993408203126 1.068 Q 4.276493408203125 1.068 4.345493408203126 1.04175 Q 4.414493408203126 1.0155 4.456493408203126 0.9735 Q 4.498493408203125 0.9315 4.517243408203125 0.8782500000000001 Q 4.535993408203125 0.8250000000000001 4.535993408203125 0.7710000000000001 Q 4.535993408203125 0.6855 4.499243408203125 0.6345000000000001 Q 4.462493408203125 0.5835000000000001 4.411493408203126 0.5565 Q 4.3604934082031255 0.5295000000000001 4.306493408203125 0.5205000000000001 Q 4.252493408203126 0.5115000000000001 4.2194934082031255 0.51 L 4.2194934082031255 0.504 Q 4.271993408203126 0.504 4.318493408203126 0.48375 Q 4.364993408203126 0.4635 4.400243408203125 0.43125 Q 4.435493408203126 0.399 4.456493408203126 0.35625000000000007 Q 4.4774934082031255 0.3135 4.4774934082031255 0.26550000000000007 Q 4.4774934082031255 0.22350000000000003 4.459493408203126 0.18000000000000005 Q 4.441493408203126 0.13650000000000007 4.404743408203125 0.10050000000000003 Q 4.367993408203126 0.0645 4.310243408203125 0.04125000000000001 Q 4.252493408203126 0.018000000000000016 4.1744934082031255 0.018000000000000016 L 3.7994934082031255 0.018000000000000016 L 3.7994934082031255 1.068 M 3.9359934082031254 1.002 L 3.9359934082031254 0.543 L 4.100993408203125 0.543 Q 4.1744934082031255 0.543 4.228493408203125 0.5625 Q 4.282493408203125 0.5820000000000001 4.317743408203126 0.615 Q 4.352993408203125 0.6480000000000001 4.370243408203125 0.6915 Q 4.387493408203126 0.7350000000000001 4.387493408203126 0.783 Q 4.387493408203126 0.8355 4.368743408203125 0.8760000000000001 Q 4.349993408203125 0.9165000000000001 4.318493408203126 0.9450000000000001 Q 4.286993408203125 0.9735 4.2442434082031255 0.98775 Q 4.201493408203126 1.002 4.153493408203126 1.002 L 3.9359934082031254 1.002 M 3.9359934082031254 0.4770000000000001 L 3.9359934082031254 0.08400000000000007 L 4.118993408203125 0.08400000000000007 Q 4.177493408203126 0.08400000000000007 4.218743408203125 0.10050000000000003 Q 4.259993408203125 0.11699999999999999 4.286243408203125 0.14400000000000002 Q 4.312493408203125 0.17100000000000004 4.324493408203125 0.20550000000000002 Q 4.3364934082031255 0.24 4.3364934082031255 0.2745000000000001 Q 4.3364934082031255 0.31800000000000006 4.319243408203126 0.35550000000000004 Q 4.301993408203125 0.393 4.271243408203126 0.42000000000000004 Q 4.240493408203125 0.44700000000000006 4.200743408203126 0.4620000000000001 Q 4.160993408203125 0.4770000000000001 4.115993408203125 0.4770000000000001 L 3.9359934082031254 0.4770000000000001 M 4.701009521484376 0.543 Q 4.701009521484376 0.627 4.733259521484375 0.7222500000000001 Q 4.7655095214843755 0.8175000000000001 4.834509521484375 0.8985000000000001 Q 4.903509521484375 0.9795 5.010009521484376 1.03275 Q 5.116509521484375 1.086 5.265009521484376 1.086 Q 5.365509521484375 1.086 5.4472595214843755 1.06125 Q 5.529009521484376 1.0365 5.594259521484376 0.9945 Q 5.659509521484376 0.9525 5.707509521484376 0.89775 Q 5.755509521484376 0.8430000000000001 5.786259521484375 0.7822500000000001 Q 5.817009521484375 0.7215 5.832759521484375 0.66 Q 5.848509521484376 0.5985 5.848509521484376 0.543 Q 5.848509521484376 0.4590000000000001 5.814009521484375 0.36375 Q 5.779509521484376 0.26850000000000007 5.707509521484376 0.1875 Q 5.635509521484376 0.10650000000000004 5.525259521484376 0.05325000000000002 Q 5.415009521484375 0 5.265009521484376 0 Q 5.116509521484375 0 5.010009521484376 0.05249999999999999 Q 4.903509521484375 0.1050000000000001 4.834509521484375 0.18525000000000003 Q 4.7655095214843755 0.26550000000000007 4.733259521484375 0.36150000000000004 Q 4.701009521484376 0.4575 4.701009521484376 0.543 M 4.848009521484376 0.543 Q 4.848009521484376 0.43800000000000006 4.880259521484375 0.35025000000000006 Q 4.912509521484376 0.26250000000000007 4.968759521484375 0.1995 Q 5.0250095214843755 0.13650000000000007 5.101509521484376 0.10125000000000006 Q 5.178009521484375 0.06600000000000006 5.268009521484376 0.06600000000000006 Q 5.356509521484376 0.06600000000000006 5.435259521484376 0.10125000000000006 Q 5.514009521484375 0.13650000000000007 5.573259521484376 0.1995 Q 5.6325095214843754 0.26250000000000007 5.667009521484376 0.35025000000000006 Q 5.701509521484375 0.43800000000000006 5.701509521484375 0.543 Q 5.701509521484375 0.6480000000000001 5.667009521484376 0.7357500000000001 Q 5.6325095214843754 0.8235000000000001 5.573259521484376 0.8865000000000001 Q 5.514009521484375 0.9495 5.435259521484376 0.98475 Q 5.356509521484376 1.02 5.268009521484376 1.02 Q 5.178009521484375 1.02 5.101509521484376 0.98475 Q 5.0250095214843755 0.9495 4.968759521484375 0.8865000000000001 Q 4.912509521484376 0.8235000000000001 4.880259521484375 0.7357500000000001 Q 4.848009521484376 0.6480000000000001 4.848009521484376 0.543 M 5.983494873046876 0.018000000000000016 L 6.346494873046876 0.6705000000000001 L 6.346494873046876 1.068 L 6.482994873046876 1.068 L 6.482994873046876 0.657 L 6.851994873046876 0.018000000000000016 L 6.770994873046876 0.018000000000000016 L 6.449994873046876 0.5715000000000001 L 6.443994873046876 0.5715000000000001 L 6.1379948730468765 0.018000000000000016 L 5.983494873046876 0.018000000000000016" fill="#1c3423" fill-rule="nonzero"></path></g><g></g><g clip-path="url(#SvgjsClipPath1002)"><g clip-path="url(#a106f23f2-884b-477a-a8db-5f265b3e8b35ac426166-3392-4f34-90c6-7c7075524ab1)"><path d=" M 0.7336435768933203 -2.7456424717009353 C 1.5284284774086312 -3.3264687081928956 2.467139599296793 -3.6333433117978156 3.4482034810467193 -3.6333433117978156 C 4.429511236653816 -3.6333433117978156 5.368506878042009 -3.3264687081928956 6.163332424200181 -2.7456424717009353 M 4.848567814556693 -0.5215941856010686 C 4.027200663609909 -1.1215645198808328 2.8705476046979626 -1.1221335588808947 2.0483675408939472 -0.5215941856010686 M 5.505970442199867 -1.6336183286510022 C 4.929127478708343 -2.0550729994827126 4.219170034845146 -2.306954048295916 3.4482034810467193 -2.306954048295916 C 2.6775214467483246 -2.306954048295916 1.9678485223851596 -2.0550729994827126 1.3910055588936339 -1.6336183286510022" fill="none" transform="matrix(1,0,0,1,0,0)" fill-rule="nonzero" stroke-dasharray="none" stroke-miterlimit="10" stroke-linejoin="miter" stroke-linecap="round" stroke-width="0.5432290168450002" stroke="#67a97b"></path></g></g></g><defs><clipPath id="SvgjsClipPath1002"><path d=" M 0.4620087456493893 -3.9049466347654724 h 5.972942957919971 v 3.6549466347654724 h -5.972942957919971 Z"></path></clipPath><clipPath id="a106f23f2-884b-477a-a8db-5f265b3e8b35ac426166-3392-4f34-90c6-7c7075524ab1"><path d=" M 0.4620087456493893 -0.25 L 6.434926609801249 -0.25 L 6.434926609801249 -3.904937497398885 L 0.4620087456493893 -3.904937497398885 Z"></path></clipPath></defs></svg>